<svg width="32" height="32" viewBox="0 0 32 32" xmlns="http://www.w3.org/2000/svg">
<path d="M32 12.16C32 12.6692 31.7977 13.1576 31.4376 13.5176C31.0776 13.8777 30.5892 14.08 30.08 14.08C29.5708 14.08 29.0824 13.8777 28.7224 13.5176C28.3623 13.1576 28.16 12.6692 28.16 12.16V6.56L18.6384 16.0816C18.2777 16.4423 17.7885 16.6449 17.2784 16.6449C16.7683 16.6449 16.2791 16.4423 15.9184 16.0816C15.5577 15.7209 15.3551 15.2317 15.3551 14.7216C15.3551 14.2115 15.5577 13.7223 15.9184 13.3616L25.44 3.84H19.84C19.3308 3.84 18.8424 3.63772 18.4824 3.27765C18.1223 2.91758 17.92 2.42922 17.92 1.92C17.92 1.41078 18.1223 0.922425 18.4824 0.562355C18.8424 0.202285 19.3308 0 19.84 0H30.08C30.5892 0 31.0776 0.202285 31.4376 0.562355C31.7977 0.922425 32 1.41078 32 1.92V12.16ZM24.96 16C24.4508 16 23.9624 16.2023 23.6024 16.5624C23.2423 16.9224 23.04 17.4108 23.04 17.92V28.16H3.84V8.96H14.08C14.5892 8.96 15.0776 8.75772 15.4376 8.39764C15.7977 8.03757 16 7.54922 16 7.04C16 6.53078 15.7977 6.04242 15.4376 5.68235C15.0776 5.32228 14.5892 5.12 14.08 5.12H3.2C2.35131 5.12 1.53737 5.45714 0.937258 6.05726C0.337142 6.65737 0 7.47131 0 8.32V28.8C0 29.6487 0.337142 30.4626 0.937258 31.0627C1.53737 31.6629 2.35131 32 3.2 32H23.68C24.5287 32 25.3426 31.6629 25.9427 31.0627C26.5429 30.4626 26.88 29.6487 26.88 28.8V17.92C26.88 17.4108 26.6777 16.9224 26.3176 16.5624C25.9576 16.2023 25.4692 16 24.96 16Z" />
</svg>
