<svg width="74" height="36" viewBox="0 0 74 36" fill="none" xmlns="http://www.w3.org/2000/svg">
<path d="M5.40625 11.8411H11.9922V12.974H6.55469V16.5677H11.9453V17.6927H6.55469V22.2005H11.9453V23.3333H5.40625V11.8411ZM13.9844 23.3333V11.8411H14.2344L21.875 20.638V11.8411H23.0078V23.3333H22.75L15.1719 14.6458V23.3333H13.9844ZM36.9062 13.7708L36.0156 14.6146C35.375 13.9844 34.6719 13.5078 33.9062 13.1849C33.1458 12.8568 32.4036 12.6927 31.6797 12.6927C30.7786 12.6927 29.9193 12.9141 29.1016 13.3568C28.2891 13.7995 27.6589 14.401 27.2109 15.1615C26.763 15.9167 26.5391 16.7161 26.5391 17.5599C26.5391 18.4245 26.7708 19.2474 27.2344 20.0286C27.6979 20.8047 28.3385 21.4167 29.1562 21.8646C29.974 22.3073 30.8698 22.5286 31.8438 22.5286C33.026 22.5286 34.026 22.1953 34.8438 21.5286C35.6615 20.862 36.1458 19.9974 36.2969 18.9349H32.6328V17.8255H37.5859C37.5755 19.6016 37.0469 21.013 36 22.0599C34.9583 23.1016 33.5625 23.6224 31.8125 23.6224C29.6875 23.6224 28.0052 22.8984 26.7656 21.4505C25.8125 20.3359 25.3359 19.0469 25.3359 17.5833C25.3359 16.4948 25.6094 15.4818 26.1562 14.5443C26.7031 13.6068 27.4531 12.875 28.4062 12.349C29.3594 11.8177 30.4375 11.5521 31.6406 11.5521C32.6146 11.5521 33.5312 11.7292 34.3906 12.0833C35.25 12.4323 36.0885 12.9948 36.9062 13.7708Z" fill="#B1B1B1"/>
<path d="M56.3333 4C53.6963 4 51.1184 4.78199 48.9257 6.24707C46.7331 7.71216 45.0241 9.79454 44.0149 12.2309C43.0058 14.6672 42.7417 17.3481 43.2562 19.9345C43.7707 22.5209 45.0405 24.8967 46.9052 26.7614C48.7699 28.6261 51.1457 29.896 53.7321 30.4105C56.3185 30.9249 58.9994 30.6609 61.4358 29.6517C63.8721 28.6426 65.9545 26.9336 67.4196 24.7409C68.8847 22.5483 69.6667 19.9704 69.6667 17.3333C69.6625 13.7984 68.2564 10.4094 65.7568 7.90983C63.2573 5.41024 59.8683 4.00415 56.3333 4ZM68.098 17.3333C68.0994 18.9464 67.7674 20.5423 67.1229 22.0209L61.0196 18.268C60.8027 18.1316 60.5595 18.0425 60.3059 18.0065L57.3229 17.6052C56.9379 17.5554 56.547 17.6287 56.2063 17.8147C55.8656 18.0007 55.5925 18.2898 55.4261 18.6405H54.1294C54.0803 18.6405 54.0321 18.6266 53.9905 18.6005C53.9489 18.5744 53.9155 18.5371 53.8941 18.4928L53.3974 17.4654C53.2767 17.2145 53.1001 16.9947 52.8812 16.8227C52.6623 16.6507 52.4069 16.5311 52.1346 16.4732L50.7346 16.1725L51.9412 14.0654C51.9642 14.0255 51.9974 13.9924 52.0373 13.9694C52.0773 13.9464 52.1226 13.9345 52.1686 13.9346H54.3529C54.6622 13.9348 54.9663 13.8561 55.2366 13.7059L56.8379 12.8235C56.9607 12.7544 57.0756 12.672 57.1804 12.5778L60.698 9.39738C61.0066 9.12052 61.2114 8.74666 61.2787 8.33761C61.3459 7.92856 61.2716 7.5088 61.068 7.14771L60.6471 6.38562C62.8428 7.25405 64.727 8.76201 66.0556 10.714C67.3841 12.666 68.0957 14.9721 68.098 17.3333ZM58.5033 5.76993L59.6993 7.91242C59.7282 7.96416 59.7385 8.02416 59.7288 8.08258C59.7191 8.141 59.6898 8.19438 59.6458 8.23399L56.1281 11.4144C56.1135 11.4281 56.0973 11.44 56.0797 11.4497L54.4784 12.3333C54.4385 12.3555 54.3934 12.3667 54.3477 12.366H52.1686C51.847 12.3657 51.531 12.45 51.2524 12.6107C50.9738 12.7713 50.7425 13.0025 50.5817 13.281L49.1673 15.7529C49.1575 15.7386 49.1492 15.7232 49.1425 15.7072L47.6405 11.698C47.6158 11.6359 47.6158 11.5667 47.6405 11.5046L49.102 8.06013C50.4166 7.03291 51.935 6.29739 53.556 5.90251C55.177 5.50763 56.8635 5.46244 58.5033 5.76993ZM44.5686 17.3333C44.5666 15.3303 45.0788 13.3602 46.0562 11.6118C46.0564 11.8292 46.0959 12.0449 46.1726 12.2484L47.6745 16.2575C47.7813 16.5452 47.9591 16.8012 48.1913 17.0018C48.4234 17.2025 48.7025 17.3412 49.0026 17.4052L51.8052 18.0065C51.8442 18.015 51.8807 18.0322 51.9119 18.0569C51.9432 18.0816 51.9684 18.1131 51.9856 18.149L52.4824 19.1765C52.633 19.4853 52.8672 19.7457 53.1583 19.9282C53.4494 20.1107 53.7858 20.208 54.1294 20.2091H54.7255L53.6157 22.6928C53.4701 23.0198 53.4235 23.3823 53.4819 23.7355C53.5402 24.0886 53.7008 24.4169 53.9438 24.6797L53.9569 24.6941L56.5294 27.3425C56.5557 27.3725 56.5748 27.4081 56.5853 27.4466C56.5957 27.4851 56.5971 27.5255 56.5895 27.5647L56.2941 29.098C53.1818 29.0842 50.2015 27.839 48.0044 25.6346C45.8073 23.4302 44.5721 20.4457 44.5686 17.3333ZM57.9124 28.9921L58.1307 27.868C58.1844 27.586 58.1713 27.2954 58.0926 27.0194C58.0138 26.7434 57.8715 26.4896 57.6771 26.2784L57.6641 26.264L55.0915 23.6157C55.0582 23.5781 55.0365 23.5318 55.0288 23.4822C55.0212 23.4326 55.0279 23.3818 55.0484 23.3359L56.8392 19.319C56.862 19.2659 56.9016 19.2219 56.952 19.1938C57.0023 19.1657 57.0606 19.155 57.1176 19.1634L60.1007 19.566C60.1367 19.5706 60.1715 19.5826 60.2026 19.6013L66.3987 23.4183C65.4888 24.921 64.2547 26.2013 62.7864 27.1657C61.3181 28.13 59.6529 28.7541 57.9124 28.9921Z" fill="#B1B1B1"/>
</svg>
