<svg width="72" height="36" viewBox="0 0 72 36" fill="none" xmlns="http://www.w3.org/2000/svg">
<path d="M5.39062 12.5095H7.67969C8.99219 12.5095 9.8776 12.5668 10.3359 12.6813C10.9922 12.8428 11.5286 13.1761 11.9453 13.6813C12.362 14.1813 12.5703 14.8115 12.5703 15.572C12.5703 16.3376 12.3672 16.9704 11.9609 17.4704C11.5547 17.9652 10.9948 18.2985 10.2812 18.4704C9.76042 18.5954 8.78646 18.6579 7.35938 18.6579H6.53906V24.0016H5.39062V12.5095ZM6.53906 13.6266V17.5329L8.48438 17.5563C9.27083 17.5563 9.84635 17.486 10.2109 17.3454C10.5755 17.1996 10.862 16.9678 11.0703 16.6501C11.2786 16.3272 11.3828 15.9678 11.3828 15.572C11.3828 15.1865 11.2786 14.835 11.0703 14.5173C10.862 14.1944 10.5859 13.9652 10.2422 13.8298C9.90365 13.6944 9.34635 13.6266 8.57031 13.6266H6.53906ZM13.9922 12.5407H15.2891L18.7656 20.3454L21.9453 12.5095H23.2031L18.8438 22.8376C18.4375 23.8063 17.7161 24.2907 16.6797 24.2907C16.263 24.2907 15.8698 24.2048 15.5 24.0329C15.1302 23.8662 14.6615 23.4678 14.0938 22.8376L14.9297 22.1501C15.5078 22.7178 15.8932 23.0407 16.0859 23.1188C16.2786 23.197 16.474 23.236 16.6719 23.236C16.974 23.236 17.2344 23.1553 17.4531 22.9938C17.6771 22.8324 17.9219 22.4287 18.1875 21.7829L13.9922 12.5407ZM35.9141 14.6423L35.0078 15.3376C34.5078 14.6865 33.9062 14.1944 33.2031 13.861C32.5052 13.5225 31.737 13.3532 30.8984 13.3532C29.9818 13.3532 29.1328 13.5746 28.3516 14.0173C27.5703 14.4548 26.9635 15.0459 26.5312 15.7907C26.1042 16.5303 25.8906 17.3636 25.8906 18.2907C25.8906 19.6918 26.3698 20.861 27.3281 21.7985C28.2917 22.736 29.5052 23.2048 30.9688 23.2048C32.5781 23.2048 33.9245 22.5746 35.0078 21.3141L35.9141 22.0016C35.3411 22.7308 34.625 23.2959 33.7656 23.697C32.9115 24.0928 31.9557 24.2907 30.8984 24.2907C28.888 24.2907 27.3021 23.6214 26.1406 22.2829C25.1667 21.1527 24.6797 19.7881 24.6797 18.1891C24.6797 16.5069 25.2682 15.0928 26.4453 13.947C27.6276 12.7959 29.1068 12.2204 30.8828 12.2204C31.9557 12.2204 32.9245 12.4339 33.7891 12.861C34.6536 13.2829 35.362 13.8766 35.9141 14.6423Z" fill="#B1B1B1"/>
<path d="M54.335 4.66666C51.6976 4.66666 49.1194 5.44874 46.9265 6.91401C44.7335 8.37928 43.0244 10.4619 42.0151 12.8986C41.0058 15.3352 40.7417 18.0164 41.2562 20.6032C41.7708 23.1899 43.0408 25.566 44.9057 27.4309C46.7707 29.2959 49.1467 30.5659 51.7335 31.0804C54.3202 31.595 57.0014 31.3309 59.4381 30.3216C61.8747 29.3123 63.9574 27.6031 65.4226 25.4102C66.8879 23.2173 67.67 20.6391 67.67 18.0017C67.6658 14.4663 66.2596 11.0769 63.7597 8.57697C61.2598 6.07708 57.8704 4.67081 54.335 4.66666ZM54.335 6.23548C56.6631 6.23305 58.939 6.92493 60.8718 8.22266V10.9419C60.8721 11.0047 60.8498 11.0655 60.809 11.1132L57.9106 14.4718C57.8689 14.5205 57.8107 14.5521 57.7472 14.5607L53.633 15.1255C53.5665 15.1345 53.4991 15.1177 53.4447 15.0784L53.4133 15.0575L50.8378 13.3723C50.6384 13.2314 50.4128 13.1318 50.1743 13.0794C49.9358 13.027 49.6893 13.0228 49.4491 13.0672C49.209 13.1115 48.9802 13.2035 48.7762 13.3376C48.5721 13.4717 48.397 13.6453 48.261 13.8482L45.5156 17.9402C45.3157 18.2385 45.2084 18.5891 45.2071 18.9482L45.1835 23.6821C45.1833 23.7252 45.1725 23.7675 45.1519 23.8054C45.1314 23.8432 45.1018 23.8754 45.0659 23.8991L44.4122 24.3266C43.2783 22.548 42.6434 20.4972 42.574 18.389C42.5045 16.2808 43.0031 14.1927 44.0175 12.3433C45.0319 10.4939 46.5248 8.95114 48.3399 7.87661C50.155 6.80208 52.2257 6.23526 54.335 6.23548ZM45.3509 25.5908L45.93 25.2117C46.1818 25.0456 46.3885 24.8199 46.532 24.5547C46.6755 24.2894 46.7512 23.9928 46.7524 23.6913L46.7798 18.9547C46.7802 18.9036 46.7952 18.8538 46.823 18.8109L49.5684 14.7189C49.5879 14.6896 49.6131 14.6645 49.6426 14.6452C49.672 14.6259 49.705 14.6127 49.7397 14.6065C49.7742 14.6004 49.8095 14.6013 49.8437 14.6092C49.8778 14.617 49.91 14.6317 49.9384 14.6522L49.9698 14.6731L52.5452 16.3583C52.9243 16.6277 53.3921 16.7418 53.8526 16.6773L57.9668 16.1204C58.4102 16.0603 58.8162 15.8398 59.1081 15.5007L62.0065 12.1329C62.2885 11.8003 62.4424 11.378 62.4406 10.9419V9.48033C64.0959 11.0521 65.2577 13.0718 65.7842 15.2928C66.3108 17.5139 66.1792 19.8402 65.4057 21.9878L63.0001 19.7888C62.743 19.5536 62.4241 19.3967 62.0809 19.3364C61.7377 19.2762 61.3844 19.3152 61.0626 19.4489L57.0804 21.104C56.7892 21.2265 56.5343 21.4218 56.3402 21.671C56.146 21.9203 56.0192 22.2153 55.9718 22.5277L55.6607 24.6443C55.5951 25.09 55.6962 25.5443 55.9447 25.9201C56.1931 26.2959 56.5714 26.5669 57.0072 26.6812L59.8128 27.4146C59.8577 27.4272 59.8987 27.451 59.9318 27.4839L60.4783 28.0304C58.0821 29.5012 55.2378 30.0639 52.4621 29.6163C49.6864 29.1687 47.1632 27.7404 45.3509 25.5908ZM61.7738 27.1113L61.043 26.3779C60.8132 26.1478 60.5262 25.983 60.2116 25.9007L57.406 25.1646C57.3436 25.1483 57.2896 25.1095 57.2541 25.0557C57.2186 25.0018 57.2043 24.9368 57.2138 24.8731L57.5263 22.7565C57.5327 22.7117 57.5507 22.6694 57.5784 22.6336C57.6062 22.5979 57.6427 22.57 57.6844 22.5525L61.6653 20.8974C61.7113 20.8782 61.7619 20.8726 61.811 20.8812C61.8601 20.8897 61.9057 20.9122 61.9425 20.9458L64.735 23.5004C63.9968 24.8882 62.9903 26.1156 61.7738 27.1113Z" fill="#B1B1B1"/>
</svg>
