<svg width="318" height="40" viewBox="0 0 318 40" xmlns="http://www.w3.org/2000/svg">
<g clip-path="url(#clip0_372_105)">
<path d="M8.22878 5.75843L7.46893 5.5145L7.06251 6.2013L1 16.4461V1H31.0531L26.1955 11.5263L8.22878 5.75843ZM15.1038 23.8834L14.344 23.6395L13.9375 24.3263L5.25419 39H1V30.1912L10.6482 13.887L29.1124 19.8145L29.9552 20.0851L30.326 19.2814L38.7626 1H39V16.8024L33.0705 29.6513L15.1038 23.8834ZM35.9874 37.9395L36.8302 38.2101L37.2011 37.4064L39 33.5082V39H13.388L17.5232 32.012L35.9874 37.9395Z" fill="#E3E3E3" stroke="#E3E3E3" stroke-width="2"/>
</g>
<path d="M52.6504 3.63477H55.8926C57.9824 3.63477 59.5352 3.89518 60.5508 4.41602C61.5664 4.93034 62.403 5.77018 63.0605 6.93555C63.7181 8.10091 64.0469 9.46159 64.0469 11.0176C64.0469 12.1243 63.8613 13.1432 63.4902 14.0742C63.1257 14.9987 62.6178 15.7669 61.9668 16.3789C61.3223 16.9909 60.6224 17.4141 59.8672 17.6484C59.112 17.8828 57.8034 18 55.9414 18H52.6504V3.63477ZM55.375 6.27148V15.3242H56.6445C57.8945 15.3242 58.7995 15.181 59.3594 14.8945C59.9258 14.6081 60.388 14.1263 60.7461 13.4492C61.1042 12.7721 61.2832 11.9388 61.2832 10.9492C61.2832 9.42578 60.8568 8.24414 60.0039 7.4043C59.2357 6.64909 58.002 6.27148 56.3027 6.27148H55.375ZM74.2031 7.375H76.8594V18H74.2031V16.877C73.6823 17.3717 73.1582 17.7298 72.6309 17.9512C72.11 18.166 71.5436 18.2734 70.9316 18.2734C69.5579 18.2734 68.3698 17.7428 67.3672 16.6816C66.3646 15.6139 65.8633 14.2891 65.8633 12.707C65.8633 11.0664 66.3483 9.72201 67.3184 8.67383C68.2884 7.62565 69.4668 7.10156 70.8535 7.10156C71.4915 7.10156 72.0905 7.22201 72.6504 7.46289C73.2103 7.70378 73.7279 8.0651 74.2031 8.54688V7.375ZM71.4004 9.5625C70.5736 9.5625 69.8867 9.85547 69.3398 10.4414C68.793 11.0208 68.5195 11.7663 68.5195 12.6777C68.5195 13.5957 68.7962 14.3509 69.3496 14.9434C69.9095 15.5358 70.5964 15.832 71.4102 15.832C72.25 15.832 72.9466 15.5423 73.5 14.9629C74.0534 14.377 74.3301 13.612 74.3301 12.668C74.3301 11.7435 74.0534 10.9948 73.5 10.4219C72.9466 9.84896 72.2467 9.5625 71.4004 9.5625ZM79.877 3.45898H82.5332V7.375H84.1152V9.66992H82.5332V18H79.877V9.66992H78.5098V7.375H79.877V3.45898ZM93.4023 7.375H96.0586V18H93.4023V16.877C92.8815 17.3717 92.3574 17.7298 91.8301 17.9512C91.3092 18.166 90.7428 18.2734 90.1309 18.2734C88.7572 18.2734 87.569 17.7428 86.5664 16.6816C85.5638 15.6139 85.0625 14.2891 85.0625 12.707C85.0625 11.0664 85.5475 9.72201 86.5176 8.67383C87.4876 7.62565 88.666 7.10156 90.0527 7.10156C90.6908 7.10156 91.2897 7.22201 91.8496 7.46289C92.4095 7.70378 92.9271 8.0651 93.4023 8.54688V7.375ZM90.5996 9.5625C89.7728 9.5625 89.0859 9.85547 88.5391 10.4414C87.9922 11.0208 87.7188 11.7663 87.7188 12.6777C87.7188 13.5957 87.9954 14.3509 88.5488 14.9434C89.1087 15.5358 89.7956 15.832 90.6094 15.832C91.4492 15.832 92.1458 15.5423 92.6992 14.9629C93.2526 14.377 93.5293 13.612 93.5293 12.668C93.5293 11.7435 93.2526 10.9948 92.6992 10.4219C92.1458 9.84896 91.446 9.5625 90.5996 9.5625ZM99.125 11.4668H104.086V13.9473H99.125V11.4668ZM115.004 3.27344H117.66V18H115.004V16.877C114.483 17.3717 113.959 17.7298 113.432 17.9512C112.911 18.166 112.344 18.2734 111.732 18.2734C110.359 18.2734 109.171 17.7428 108.168 16.6816C107.165 15.6139 106.664 14.2891 106.664 12.707C106.664 11.0664 107.149 9.72201 108.119 8.67383C109.089 7.62565 110.268 7.10156 111.654 7.10156C112.292 7.10156 112.891 7.22201 113.451 7.46289C114.011 7.70378 114.529 8.0651 115.004 8.54688V3.27344ZM112.201 9.5625C111.374 9.5625 110.688 9.85547 110.141 10.4414C109.594 11.0208 109.32 11.7663 109.32 12.6777C109.32 13.5957 109.597 14.3509 110.15 14.9434C110.71 15.5358 111.397 15.832 112.211 15.832C113.051 15.832 113.747 15.5423 114.301 14.9629C114.854 14.377 115.131 13.612 115.131 12.668C115.131 11.7435 114.854 10.9948 114.301 10.4219C113.747 9.84896 113.048 9.5625 112.201 9.5625ZM119.73 7.375H122.016V8.71289C122.263 8.18555 122.592 7.78516 123.002 7.51172C123.412 7.23828 123.861 7.10156 124.35 7.10156C124.695 7.10156 125.056 7.19271 125.434 7.375L124.604 9.66992C124.291 9.51367 124.034 9.43555 123.832 9.43555C123.422 9.43555 123.074 9.68945 122.787 10.1973C122.507 10.7051 122.367 11.7012 122.367 13.1855L122.377 13.7031V18H119.73V7.375ZM127.807 3C128.275 3 128.676 3.16927 129.008 3.50781C129.346 3.84635 129.516 4.25651 129.516 4.73828C129.516 5.21354 129.35 5.62044 129.018 5.95898C128.686 6.29102 128.288 6.45703 127.826 6.45703C127.351 6.45703 126.944 6.28776 126.605 5.94922C126.273 5.60417 126.107 5.1875 126.107 4.69922C126.107 4.23047 126.273 3.83008 126.605 3.49805C126.938 3.16602 127.338 3 127.807 3ZM126.469 7.375H129.145V18H126.469V7.375ZM130.424 7.375H133.139L135.824 13.6445L138.5 7.375H141.205L136.684 18H134.955L130.424 7.375ZM153.422 13.459H144.857C144.981 14.2142 145.31 14.8164 145.844 15.2656C146.384 15.7083 147.071 15.9297 147.904 15.9297C148.9 15.9297 149.757 15.5814 150.473 14.8848L152.719 15.9395C152.159 16.7337 151.488 17.3229 150.707 17.707C149.926 18.0846 148.998 18.2734 147.924 18.2734C146.257 18.2734 144.9 17.7493 143.852 16.7012C142.803 15.6465 142.279 14.3281 142.279 12.7461C142.279 11.125 142.8 9.7806 143.842 8.71289C144.89 7.63867 146.202 7.10156 147.777 7.10156C149.451 7.10156 150.811 7.63867 151.859 8.71289C152.908 9.7806 153.432 11.1934 153.432 12.9512L153.422 13.459ZM150.746 11.3594C150.57 10.7669 150.222 10.2852 149.701 9.91406C149.187 9.54297 148.588 9.35742 147.904 9.35742C147.162 9.35742 146.511 9.56576 145.951 9.98242C145.6 10.2428 145.274 10.7018 144.975 11.3594H150.746ZM155.59 7.375H158.246V8.45898C158.852 7.95117 159.398 7.59961 159.887 7.4043C160.382 7.20247 160.886 7.10156 161.4 7.10156C162.455 7.10156 163.35 7.4694 164.086 8.20508C164.704 8.83008 165.014 9.75456 165.014 10.9785V18H162.377V13.3418C162.377 12.0723 162.318 11.2292 162.201 10.8125C162.09 10.3958 161.892 10.0801 161.605 9.86523C161.326 9.64388 160.977 9.5332 160.561 9.5332C160.02 9.5332 159.555 9.71549 159.164 10.0801C158.78 10.4382 158.513 10.9362 158.363 11.5742C158.285 11.9062 158.246 12.6257 158.246 13.7324V18H155.59V7.375ZM172.064 7.375H174.779L177.465 13.6445L180.141 7.375H182.846L178.324 18H176.596L172.064 7.375ZM185.463 3C185.932 3 186.332 3.16927 186.664 3.50781C187.003 3.84635 187.172 4.25651 187.172 4.73828C187.172 5.21354 187.006 5.62044 186.674 5.95898C186.342 6.29102 185.945 6.45703 185.482 6.45703C185.007 6.45703 184.6 6.28776 184.262 5.94922C183.93 5.60417 183.764 5.1875 183.764 4.69922C183.764 4.23047 183.93 3.83008 184.262 3.49805C184.594 3.16602 184.994 3 185.463 3ZM184.125 7.375H186.801V18H184.125V7.375ZM195.727 8.85938L194.076 10.5098C193.406 9.8457 192.797 9.51367 192.25 9.51367C191.951 9.51367 191.716 9.57878 191.547 9.70898C191.378 9.83268 191.293 9.98893 191.293 10.1777C191.293 10.321 191.345 10.4544 191.449 10.5781C191.56 10.6953 191.827 10.8581 192.25 11.0664L193.227 11.5547C194.255 12.0625 194.962 12.5801 195.346 13.1074C195.73 13.6348 195.922 14.2533 195.922 14.9629C195.922 15.9069 195.574 16.6947 194.877 17.3262C194.187 17.9577 193.259 18.2734 192.094 18.2734C190.544 18.2734 189.307 17.668 188.383 16.457L190.023 14.6699C190.336 15.0345 190.701 15.3307 191.117 15.5586C191.54 15.7799 191.915 15.8906 192.24 15.8906C192.592 15.8906 192.875 15.806 193.09 15.6367C193.305 15.4674 193.412 15.2721 193.412 15.0508C193.412 14.6406 193.025 14.2402 192.25 13.8496L191.352 13.4004C189.633 12.5345 188.773 11.4505 188.773 10.1484C188.773 9.30859 189.096 8.59245 189.74 8C190.391 7.40104 191.221 7.10156 192.23 7.10156C192.921 7.10156 193.568 7.25456 194.174 7.56055C194.786 7.86003 195.303 8.29297 195.727 8.85938ZM198.021 7.375H200.717V12.4922C200.717 13.4883 200.785 14.1816 200.922 14.5723C201.059 14.9564 201.277 15.2559 201.576 15.4707C201.882 15.6855 202.257 15.793 202.699 15.793C203.142 15.793 203.516 15.6888 203.822 15.4805C204.135 15.2656 204.366 14.9531 204.516 14.543C204.626 14.237 204.682 13.5827 204.682 12.5801V7.375H207.357V11.877C207.357 13.7324 207.211 15.002 206.918 15.6855C206.56 16.5189 206.033 17.1602 205.336 17.6094C204.639 18.0521 203.754 18.2734 202.68 18.2734C201.514 18.2734 200.57 18.013 199.848 17.4922C199.132 16.9714 198.627 16.2454 198.334 15.3145C198.126 14.6699 198.021 13.498 198.021 11.7988V7.375ZM217.895 7.375H220.551V18H217.895V16.877C217.374 17.3717 216.85 17.7298 216.322 17.9512C215.801 18.166 215.235 18.2734 214.623 18.2734C213.249 18.2734 212.061 17.7428 211.059 16.6816C210.056 15.6139 209.555 14.2891 209.555 12.707C209.555 11.0664 210.04 9.72201 211.01 8.67383C211.98 7.62565 213.158 7.10156 214.545 7.10156C215.183 7.10156 215.782 7.22201 216.342 7.46289C216.902 7.70378 217.419 8.0651 217.895 8.54688V7.375ZM215.092 9.5625C214.265 9.5625 213.578 9.85547 213.031 10.4414C212.484 11.0208 212.211 11.7663 212.211 12.6777C212.211 13.5957 212.488 14.3509 213.041 14.9434C213.601 15.5358 214.288 15.832 215.102 15.832C215.941 15.832 216.638 15.5423 217.191 14.9629C217.745 14.377 218.021 13.612 218.021 12.668C218.021 11.7435 217.745 10.9948 217.191 10.4219C216.638 9.84896 215.938 9.5625 215.092 9.5625ZM222.963 3.27344H225.629V18H222.963V3.27344ZM229.096 3C229.564 3 229.965 3.16927 230.297 3.50781C230.635 3.84635 230.805 4.25651 230.805 4.73828C230.805 5.21354 230.639 5.62044 230.307 5.95898C229.975 6.29102 229.577 6.45703 229.115 6.45703C228.64 6.45703 228.233 6.28776 227.895 5.94922C227.562 5.60417 227.396 5.1875 227.396 4.69922C227.396 4.23047 227.562 3.83008 227.895 3.49805C228.227 3.16602 228.627 3 229.096 3ZM227.758 7.375H230.434V18H227.758V7.375ZM232.396 7.375H240.551L235.766 15.7441H240.277V18H231.664L236.469 9.63086H232.396V7.375ZM249.906 7.375H252.562V18H249.906V16.877C249.385 17.3717 248.861 17.7298 248.334 17.9512C247.813 18.166 247.247 18.2734 246.635 18.2734C245.261 18.2734 244.073 17.7428 243.07 16.6816C242.068 15.6139 241.566 14.2891 241.566 12.707C241.566 11.0664 242.051 9.72201 243.021 8.67383C243.992 7.62565 245.17 7.10156 246.557 7.10156C247.195 7.10156 247.794 7.22201 248.354 7.46289C248.913 7.70378 249.431 8.0651 249.906 8.54688V7.375ZM247.104 9.5625C246.277 9.5625 245.59 9.85547 245.043 10.4414C244.496 11.0208 244.223 11.7663 244.223 12.6777C244.223 13.5957 244.499 14.3509 245.053 14.9434C245.613 15.5358 246.299 15.832 247.113 15.832C247.953 15.832 248.65 15.5423 249.203 14.9629C249.757 14.377 250.033 13.612 250.033 12.668C250.033 11.7435 249.757 10.9948 249.203 10.4219C248.65 9.84896 247.95 9.5625 247.104 9.5625ZM255.58 3.45898H258.236V7.375H259.818V9.66992H258.236V18H255.58V9.66992H254.213V7.375H255.58V3.45898ZM262.299 3C262.768 3 263.168 3.16927 263.5 3.50781C263.839 3.84635 264.008 4.25651 264.008 4.73828C264.008 5.21354 263.842 5.62044 263.51 5.95898C263.178 6.29102 262.781 6.45703 262.318 6.45703C261.843 6.45703 261.436 6.28776 261.098 5.94922C260.766 5.60417 260.6 5.1875 260.6 4.69922C260.6 4.23047 260.766 3.83008 261.098 3.49805C261.43 3.16602 261.83 3 262.299 3ZM260.961 7.375H263.637V18H260.961V7.375ZM271.049 7.10156C272.051 7.10156 272.992 7.35221 273.871 7.85352C274.757 8.35482 275.447 9.03516 275.941 9.89453C276.436 10.7539 276.684 11.6816 276.684 12.6777C276.684 13.6803 276.433 14.6178 275.932 15.4902C275.437 16.3626 274.76 17.0462 273.9 17.541C273.041 18.0293 272.094 18.2734 271.059 18.2734C269.535 18.2734 268.233 17.7331 267.152 16.6523C266.078 15.5651 265.541 14.2467 265.541 12.6973C265.541 11.0371 266.15 9.65365 267.367 8.54688C268.435 7.58333 269.662 7.10156 271.049 7.10156ZM271.088 9.61133C270.261 9.61133 269.571 9.90104 269.018 10.4805C268.471 11.0534 268.197 11.7891 268.197 12.6875C268.197 13.612 268.467 14.3607 269.008 14.9336C269.555 15.5065 270.245 15.793 271.078 15.793C271.911 15.793 272.605 15.5033 273.158 14.9238C273.712 14.3444 273.988 13.599 273.988 12.6875C273.988 11.776 273.715 11.0371 273.168 10.4707C272.628 9.89779 271.934 9.61133 271.088 9.61133ZM278.871 7.375H281.527V8.45898C282.133 7.95117 282.68 7.59961 283.168 7.4043C283.663 7.20247 284.167 7.10156 284.682 7.10156C285.736 7.10156 286.632 7.4694 287.367 8.20508C287.986 8.83008 288.295 9.75456 288.295 10.9785V18H285.658V13.3418C285.658 12.0723 285.6 11.2292 285.482 10.8125C285.372 10.3958 285.173 10.0801 284.887 9.86523C284.607 9.64388 284.258 9.5332 283.842 9.5332C283.301 9.5332 282.836 9.71549 282.445 10.0801C282.061 10.4382 281.794 10.9362 281.645 11.5742C281.566 11.9062 281.527 12.6257 281.527 13.7324V18H278.871V7.375ZM297.387 8.85938L295.736 10.5098C295.066 9.8457 294.457 9.51367 293.91 9.51367C293.611 9.51367 293.376 9.57878 293.207 9.70898C293.038 9.83268 292.953 9.98893 292.953 10.1777C292.953 10.321 293.005 10.4544 293.109 10.5781C293.22 10.6953 293.487 10.8581 293.91 11.0664L294.887 11.5547C295.915 12.0625 296.622 12.5801 297.006 13.1074C297.39 13.6348 297.582 14.2533 297.582 14.9629C297.582 15.9069 297.234 16.6947 296.537 17.3262C295.847 17.9577 294.919 18.2734 293.754 18.2734C292.204 18.2734 290.967 17.668 290.043 16.457L291.684 14.6699C291.996 15.0345 292.361 15.3307 292.777 15.5586C293.201 15.7799 293.575 15.8906 293.9 15.8906C294.252 15.8906 294.535 15.806 294.75 15.6367C294.965 15.4674 295.072 15.2721 295.072 15.0508C295.072 14.6406 294.685 14.2402 293.91 13.8496L293.012 13.4004C291.293 12.5345 290.434 11.4505 290.434 10.1484C290.434 9.30859 290.756 8.59245 291.4 8C292.051 7.40104 292.882 7.10156 293.891 7.10156C294.581 7.10156 295.229 7.25456 295.834 7.56055C296.446 7.86003 296.964 8.29297 297.387 8.85938ZM314.594 12.3555L316.225 14.2207L315.482 14.8945L314.75 15.5586L317.055 18H313.744L312.797 17.0234C311.286 17.9154 309.883 18.3613 308.588 18.3613C307.488 18.3613 306.596 18.0391 305.912 17.3945C305.235 16.75 304.896 15.9232 304.896 14.9141C304.896 14.1523 305.089 13.4329 305.473 12.7559C305.857 12.0788 306.514 11.3789 307.445 10.6562C306.527 9.41276 306.068 8.3125 306.068 7.35547C306.068 6.64583 306.374 5.94596 306.986 5.25586C307.598 4.56576 308.461 4.2207 309.574 4.2207C310.701 4.2207 311.563 4.5625 312.162 5.24609C312.768 5.92969 313.07 6.61979 313.07 7.31641C313.07 7.86328 312.93 8.38737 312.65 8.88867C312.377 9.38997 311.742 10.1322 310.746 11.1152C311.911 12.4889 312.663 13.3451 313.002 13.6836C313.21 13.5273 313.741 13.0846 314.594 12.3555ZM309.398 9.19141C310.121 8.57292 310.482 8.02604 310.482 7.55078C310.482 7.30339 310.401 7.10156 310.238 6.94531C310.076 6.78906 309.861 6.71094 309.594 6.71094C309.346 6.71094 309.135 6.79883 308.959 6.97461C308.79 7.15039 308.705 7.35547 308.705 7.58984C308.705 8.05859 308.936 8.59245 309.398 9.19141ZM311.02 15.1289C310.518 14.6341 309.812 13.8138 308.9 12.668C307.93 13.4688 307.445 14.1686 307.445 14.7676C307.445 15.0475 307.576 15.3047 307.836 15.5391C308.103 15.7734 308.438 15.8906 308.842 15.8906C309.421 15.8906 310.147 15.6367 311.02 15.1289ZM51.2051 27.375H53.9199L56.6055 33.6445L59.2812 27.375H61.9863L57.4648 38H55.7363L51.2051 27.375ZM64.6035 23C65.0723 23 65.4727 23.1693 65.8047 23.5078C66.1432 23.8464 66.3125 24.2565 66.3125 24.7383C66.3125 25.2135 66.1465 25.6204 65.8145 25.959C65.4824 26.291 65.0853 26.457 64.623 26.457C64.1478 26.457 63.7409 26.2878 63.4023 25.9492C63.0703 25.6042 62.9043 25.1875 62.9043 24.6992C62.9043 24.2305 63.0703 23.8301 63.4023 23.498C63.7344 23.166 64.1348 23 64.6035 23ZM63.2656 27.375H65.9414V38H63.2656V27.375ZM74.8672 28.8594L73.2168 30.5098C72.5462 29.8457 71.9375 29.5137 71.3906 29.5137C71.0911 29.5137 70.8568 29.5788 70.6875 29.709C70.5182 29.8327 70.4336 29.9889 70.4336 30.1777C70.4336 30.321 70.4857 30.4544 70.5898 30.5781C70.7005 30.6953 70.9674 30.8581 71.3906 31.0664L72.3672 31.5547C73.3958 32.0625 74.1022 32.5801 74.4863 33.1074C74.8704 33.6348 75.0625 34.2533 75.0625 34.9629C75.0625 35.9069 74.7142 36.6947 74.0176 37.3262C73.3275 37.9577 72.3997 38.2734 71.2344 38.2734C69.6849 38.2734 68.4479 37.668 67.5234 36.457L69.1641 34.6699C69.4766 35.0345 69.8411 35.3307 70.2578 35.5586C70.681 35.7799 71.0553 35.8906 71.3809 35.8906C71.7324 35.8906 72.0156 35.806 72.2305 35.6367C72.4453 35.4674 72.5527 35.2721 72.5527 35.0508C72.5527 34.6406 72.1654 34.2402 71.3906 33.8496L70.4922 33.4004C68.7734 32.5345 67.9141 31.4505 67.9141 30.1484C67.9141 29.3086 68.2363 28.5924 68.8809 28C69.5319 27.401 70.362 27.1016 71.3711 27.1016C72.0612 27.1016 72.709 27.2546 73.3145 27.5605C73.9264 27.86 74.444 28.293 74.8672 28.8594ZM77.1621 27.375H79.8574V32.4922C79.8574 33.4883 79.9258 34.1816 80.0625 34.5723C80.1992 34.9564 80.4173 35.2559 80.7168 35.4707C81.0228 35.6855 81.3971 35.793 81.8398 35.793C82.2826 35.793 82.6569 35.6888 82.9629 35.4805C83.2754 35.2656 83.5065 34.9531 83.6562 34.543C83.7669 34.237 83.8223 33.5827 83.8223 32.5801V27.375H86.498V31.877C86.498 33.7324 86.3516 35.002 86.0586 35.6855C85.7005 36.5189 85.1732 37.1602 84.4766 37.6094C83.7799 38.0521 82.8945 38.2734 81.8203 38.2734C80.6549 38.2734 79.7109 38.013 78.9883 37.4922C78.2721 36.9714 77.7676 36.2454 77.4746 35.3145C77.2663 34.6699 77.1621 33.498 77.1621 31.7988V27.375ZM97.0352 27.375H99.6914V38H97.0352V36.877C96.5143 37.3717 95.9902 37.7298 95.4629 37.9512C94.9421 38.166 94.3757 38.2734 93.7637 38.2734C92.39 38.2734 91.2018 37.7428 90.1992 36.6816C89.1966 35.6139 88.6953 34.2891 88.6953 32.707C88.6953 31.0664 89.1803 29.722 90.1504 28.6738C91.1204 27.6257 92.2988 27.1016 93.6855 27.1016C94.3236 27.1016 94.9225 27.222 95.4824 27.4629C96.0423 27.7038 96.5599 28.0651 97.0352 28.5469V27.375ZM94.2324 29.5625C93.4056 29.5625 92.7188 29.8555 92.1719 30.4414C91.625 31.0208 91.3516 31.7663 91.3516 32.6777C91.3516 33.5957 91.6283 34.3509 92.1816 34.9434C92.7415 35.5358 93.4284 35.832 94.2422 35.832C95.082 35.832 95.7786 35.5423 96.332 34.9629C96.8854 34.377 97.1621 33.612 97.1621 32.668C97.1621 31.7435 96.8854 30.9948 96.332 30.4219C95.7786 29.849 95.0788 29.5625 94.2324 29.5625ZM102.104 23.2734H104.77V38H102.104V23.2734ZM119.301 28.8594L117.65 30.5098C116.98 29.8457 116.371 29.5137 115.824 29.5137C115.525 29.5137 115.29 29.5788 115.121 29.709C114.952 29.8327 114.867 29.9889 114.867 30.1777C114.867 30.321 114.919 30.4544 115.023 30.5781C115.134 30.6953 115.401 30.8581 115.824 31.0664L116.801 31.5547C117.829 32.0625 118.536 32.5801 118.92 33.1074C119.304 33.6348 119.496 34.2533 119.496 34.9629C119.496 35.9069 119.148 36.6947 118.451 37.3262C117.761 37.9577 116.833 38.2734 115.668 38.2734C114.118 38.2734 112.882 37.668 111.957 36.457L113.598 34.6699C113.91 35.0345 114.275 35.3307 114.691 35.5586C115.115 35.7799 115.489 35.8906 115.814 35.8906C116.166 35.8906 116.449 35.806 116.664 35.6367C116.879 35.4674 116.986 35.2721 116.986 35.0508C116.986 34.6406 116.599 34.2402 115.824 33.8496L114.926 33.4004C113.207 32.5345 112.348 31.4505 112.348 30.1484C112.348 29.3086 112.67 28.5924 113.314 28C113.965 27.401 114.796 27.1016 115.805 27.1016C116.495 27.1016 117.143 27.2546 117.748 27.5605C118.36 27.86 118.878 28.293 119.301 28.8594ZM121.928 23.459H124.584V27.375H126.166V29.6699H124.584V38H121.928V29.6699H120.561V27.375H121.928V23.459ZM132.592 27.1016C133.594 27.1016 134.535 27.3522 135.414 27.8535C136.299 28.3548 136.99 29.0352 137.484 29.8945C137.979 30.7539 138.227 31.6816 138.227 32.6777C138.227 33.6803 137.976 34.6178 137.475 35.4902C136.98 36.3626 136.303 37.0462 135.443 37.541C134.584 38.0293 133.637 38.2734 132.602 38.2734C131.078 38.2734 129.776 37.7331 128.695 36.6523C127.621 35.5651 127.084 34.2467 127.084 32.6973C127.084 31.0371 127.693 29.6536 128.91 28.5469C129.978 27.5833 131.205 27.1016 132.592 27.1016ZM132.631 29.6113C131.804 29.6113 131.114 29.901 130.561 30.4805C130.014 31.0534 129.74 31.7891 129.74 32.6875C129.74 33.612 130.01 34.3607 130.551 34.9336C131.098 35.5065 131.788 35.793 132.621 35.793C133.454 35.793 134.148 35.5033 134.701 34.9238C135.255 34.3444 135.531 33.599 135.531 32.6875C135.531 31.776 135.258 31.0371 134.711 30.4707C134.171 29.8978 133.477 29.6113 132.631 29.6113ZM139.789 27.375H142.074V28.7129C142.322 28.1855 142.65 27.7852 143.061 27.5117C143.471 27.2383 143.92 27.1016 144.408 27.1016C144.753 27.1016 145.115 27.1927 145.492 27.375L144.662 29.6699C144.35 29.5137 144.092 29.4355 143.891 29.4355C143.48 29.4355 143.132 29.6895 142.846 30.1973C142.566 30.7051 142.426 31.7012 142.426 33.1855L142.436 33.7031V38H139.789V27.375ZM147.865 23C148.334 23 148.734 23.1693 149.066 23.5078C149.405 23.8464 149.574 24.2565 149.574 24.7383C149.574 25.2135 149.408 25.6204 149.076 25.959C148.744 26.291 148.347 26.457 147.885 26.457C147.41 26.457 147.003 26.2878 146.664 25.9492C146.332 25.6042 146.166 25.1875 146.166 24.6992C146.166 24.2305 146.332 23.8301 146.664 23.498C146.996 23.166 147.396 23 147.865 23ZM146.527 27.375H149.203V38H146.527V27.375ZM162.27 33.459H153.705C153.829 34.2142 154.158 34.8164 154.691 35.2656C155.232 35.7083 155.919 35.9297 156.752 35.9297C157.748 35.9297 158.604 35.5814 159.32 34.8848L161.566 35.9395C161.007 36.7337 160.336 37.3229 159.555 37.707C158.773 38.0846 157.846 38.2734 156.771 38.2734C155.105 38.2734 153.747 37.7493 152.699 36.7012C151.651 35.6465 151.127 34.3281 151.127 32.7461C151.127 31.125 151.648 29.7806 152.689 28.7129C153.738 27.6387 155.049 27.1016 156.625 27.1016C158.298 27.1016 159.659 27.6387 160.707 28.7129C161.755 29.7806 162.279 31.1934 162.279 32.9512L162.27 33.459ZM159.594 31.3594C159.418 30.7669 159.07 30.2852 158.549 29.9141C158.035 29.543 157.436 29.3574 156.752 29.3574C156.01 29.3574 155.359 29.5658 154.799 29.9824C154.447 30.2428 154.122 30.7018 153.822 31.3594H159.594ZM170.941 28.8594L169.291 30.5098C168.62 29.8457 168.012 29.5137 167.465 29.5137C167.165 29.5137 166.931 29.5788 166.762 29.709C166.592 29.8327 166.508 29.9889 166.508 30.1777C166.508 30.321 166.56 30.4544 166.664 30.5781C166.775 30.6953 167.042 30.8581 167.465 31.0664L168.441 31.5547C169.47 32.0625 170.176 32.5801 170.561 33.1074C170.945 33.6348 171.137 34.2533 171.137 34.9629C171.137 35.9069 170.788 36.6947 170.092 37.3262C169.402 37.9577 168.474 38.2734 167.309 38.2734C165.759 38.2734 164.522 37.668 163.598 36.457L165.238 34.6699C165.551 35.0345 165.915 35.3307 166.332 35.5586C166.755 35.7799 167.13 35.8906 167.455 35.8906C167.807 35.8906 168.09 35.806 168.305 35.6367C168.52 35.4674 168.627 35.2721 168.627 35.0508C168.627 34.6406 168.24 34.2402 167.465 33.8496L166.566 33.4004C164.848 32.5345 163.988 31.4505 163.988 30.1484C163.988 29.3086 164.311 28.5924 164.955 28C165.606 27.401 166.436 27.1016 167.445 27.1016C168.135 27.1016 168.783 27.2546 169.389 27.5605C170.001 27.86 170.518 28.293 170.941 28.8594Z" fill="#E3E3E3"/>
<defs>
<clipPath id="clip0_372_105">
<rect width="40" height="40" rx="4" fill="white"/>
</clipPath>
</defs>
</svg>
